<?xml version="1.0" standalone="no"?>
<!DOCTYPE svg PUBLIC "-//W3C//DTD SVG 20010904//EN"
 "http://www.w3.org/TR/2001/REC-SVG-20010904/DTD/svg10.dtd">
<svg version="1.0" xmlns="http://www.w3.org/2000/svg"
 width="360.000000pt" height="360.000000pt" viewBox="0 0 360.000000 360.000000"
 preserveAspectRatio="xMidYMid meet">
<metadata>
Created by potrace 1.11, written by Peter Selinger 2001-2013
</metadata>
<g transform="translate(0.000000,360.000000) scale(0.100000,-0.100000)"
fill="#000000" stroke="none">
<path d="M0 1800 l0 -1800 1800 0 1800 0 0 1800 0 1800 -1800 0 -1800 0 0
-1800z m1708 1354 c8 -14 10 -14 21 0 16 19 42 21 59 4 9 -9 15 -9 24 0 34 34
65 -1 199 -213 90 -143 152 -264 207 -400 61 -153 75 -196 122 -385 5 -19 14
-85 20 -147 23 -223 -29 -445 -138 -593 -84 -115 -213 -224 -341 -289 -40 -21
-44 -21 -61 -6 -15 14 -21 14 -39 3 -15 -9 -26 -10 -38 -2 -14 9 -16 31 -14
185 l2 175 -43 55 c-46 56 -141 182 -269 354 -94 127 -129 166 -140 159 -5 -3
-9 -65 -9 -137 0 -108 4 -148 24 -223 56 -209 157 -353 319 -454 34 -21 70
-46 80 -54 21 -20 22 -65 2 -73 -26 -10 -169 85 -249 166 -73 74 -176 226
-176 261 0 9 -4 20 -9 25 -5 6 -19 48 -31 95 -28 109 -37 292 -21 409 43 294
224 760 393 1010 61 91 87 109 106 75z m77 -2108 c3 -11 4 -151 3 -310 -3
-261 -5 -290 -20 -300 -40 -25 -43 -1 -43 320 0 251 2 306 14 313 20 13 40 3
46 -23z"/>
<path d="M1703 3103 c-4 -10 -20 -37 -36 -60 -39 -58 -157 -307 -157 -332 0
-11 4 -23 10 -26 5 -3 51 -67 101 -141 50 -74 95 -134 100 -134 13 0 12 697
-1 705 -6 3 -13 -2 -17 -12z"/>
<path d="M1800 2760 c0 -192 4 -350 8 -350 5 0 19 15 32 33 13 17 69 85 123
150 l99 117 -16 33 c-44 92 -223 366 -238 367 -5 0 -8 -157 -8 -350z"/>
<path d="M1464 2622 c-22 -13 -119 -264 -149 -386 -16 -63 -16 -67 2 -89 10
-13 103 -137 207 -275 103 -139 192 -249 197 -246 5 3 9 149 9 326 l0 321 -48
66 c-27 36 -82 113 -122 171 -89 128 -83 121 -96 112z"/>
<path d="M1946 2456 l-146 -174 0 -326 c0 -179 4 -326 9 -326 7 0 114 123 216
250 17 21 77 93 134 160 120 142 117 129 61 300 -32 97 -39 113 -84 213 -14
32 -26 62 -26 67 0 27 -30 -4 -164 -164z"/>
<path d="M2154 1919 c-152 -182 -188 -225 -276 -333 l-78 -94 0 -161 c0 -104
4 -161 10 -161 6 0 13 7 16 15 4 8 11 15 16 15 16 0 172 105 219 147 79 71
156 188 195 295 45 125 59 408 20 408 -7 0 -61 -59 -122 -131z"/>
</g>
</svg>
